<svg width="86" height="39" fill="none" xmlns="http://www.w3.org/2000/svg"><path d="M11.72.06v15.42c0 .92-.15 1.74-.45 2.46-.28.72-.68 1.34-1.2 1.86-.52.5-1.15.89-1.89 1.17-.72.26-1.52.39-2.4.39-1.54 0-2.82-.38-3.84-1.14-1-.78-1.64-1.87-1.92-3.27l1.71-.39c.22.94.64 1.72 1.26 2.34.64.6 1.58.9 2.82.9 1.32 0 2.33-.39 3.03-1.17.72-.78 1.08-1.93 1.08-3.45V1.62H2V.06h9.72Zm12.798 21.3c-2.12 0-3.78-.71-4.98-2.13-1.18-1.42-1.77-3.41-1.77-5.97 0-2.56.59-4.55 1.77-5.97 1.2-1.42 2.86-2.13 4.98-2.13 2.12 0 3.77.71 4.95 2.13 1.2 1.42 1.8 3.41 1.8 5.97 0 2.56-.6 4.55-1.8 5.97-1.18 1.42-2.83 2.13-4.95 2.13Zm0-1.5c1.52 0 2.72-.48 3.6-1.44.88-.96 1.32-2.36 1.32-4.2V12.3c0-1.84-.44-3.24-1.32-4.2-.88-.96-2.08-1.44-3.6-1.44s-2.72.48-3.6 1.44c-.88.96-1.32 2.36-1.32 4.2v1.92c0 1.84.44 3.24 1.32 4.2.88.96 2.08 1.44 3.6 1.44Zm11.328-.33h4.86V6.99h-4.86V5.52h6.57v3.54h.12c.34-1.08.92-1.94 1.74-2.58.84-.64 1.94-.96 3.3-.96h2.67V7.2h-3.18c-1.4 0-2.53.42-3.39 1.26-.84.82-1.26 1.93-1.26 3.33v7.74h6.3V21h-12.87v-1.47Zm32.268 3.3c0 1.56-.64 2.7-1.92 3.42-1.28.74-3.16 1.11-5.64 1.11-2.4 0-4.13-.34-5.19-1.02-1.06-.68-1.59-1.63-1.59-2.85 0-.88.24-1.58.72-2.1.48-.5 1.15-.88 2.01-1.14v-.24c-.98-.38-1.47-1.08-1.47-2.1 0-.76.26-1.34.78-1.74.52-.42 1.16-.73 1.92-.93v-.12c-.92-.4-1.64-1-2.16-1.8-.5-.8-.75-1.76-.75-2.88 0-.78.13-1.49.39-2.13.28-.66.66-1.22 1.14-1.68.5-.48 1.1-.84 1.8-1.08.7-.26 1.48-.39 2.34-.39 1.24 0 2.3.26 3.18.78v-.63c0-.48.11-.86.33-1.14.24-.3.62-.45 1.14-.45h3.03v1.5h-3.54v1.41c.5.46.88 1.01 1.14 1.65.28.64.42 1.36.42 2.16 0 .78-.14 1.49-.42 2.13-.26.64-.64 1.2-1.14 1.68-.5.46-1.1.82-1.8 1.08-.7.24-1.48.36-2.34.36-.28 0-.54-.01-.78-.03a6.2 6.2 0 0 1-.78-.12c-.64.16-1.2.4-1.68.72-.48.32-.72.75-.72 1.29 0 .9.84 1.35 2.52 1.35h3.69c1.88 0 3.24.36 4.08 1.08.86.7 1.29 1.65 1.29 2.85Zm-1.62.06c0-.74-.28-1.33-.84-1.77-.54-.42-1.51-.63-2.91-.63h-5.07c-.7.22-1.25.54-1.65.96-.38.44-.57 1.01-.57 1.71 0 .82.33 1.49.99 2.01.68.54 1.7.81 3.06.81h2.01c1.54 0 2.75-.26 3.63-.78.9-.5 1.35-1.27 1.35-2.31Zm-6-8.55c1.3 0 2.27-.32 2.91-.96.66-.64.99-1.46.99-2.46v-.99c0-1.02-.33-1.84-.99-2.46-.64-.64-1.61-.96-2.91-.96-1.28 0-2.25.32-2.91.96-.64.62-.96 1.44-.96 2.46v.99c0 1 .33 1.82.99 2.46.66.64 1.62.96 2.88.96Zm18.228 7.02c-2.16 0-3.86-.7-5.1-2.1-1.22-1.42-1.83-3.41-1.83-5.97 0-1.28.16-2.42.48-3.42.32-1.02.77-1.87 1.35-2.55.6-.7 1.32-1.23 2.16-1.59.84-.38 1.77-.57 2.79-.57 1.04 0 1.97.19 2.79.57.82.36 1.51.88 2.07 1.56.58.68 1.02 1.49 1.32 2.43.3.94.45 1.98.45 3.12v.75h-11.61v.75c0 1.66.45 3 1.35 4.02.9 1 2.16 1.5 3.78 1.5 1.14 0 2.11-.26 2.91-.78.82-.52 1.45-1.29 1.89-2.31l1.29.81a5.946 5.946 0 0 1-2.25 2.76c-1.04.68-2.32 1.02-3.84 1.02Zm-.15-14.76c-.76 0-1.45.14-2.07.42-.6.26-1.12.63-1.56 1.11-.42.48-.75 1.06-.99 1.74-.24.68-.36 1.43-.36 2.25v.18h9.78v-.24c0-1.68-.43-3.01-1.29-3.99-.84-.98-2.01-1.47-3.51-1.47Zm-56.95 21.52h1.776v3.816h.084c.152-.368.372-.672.66-.912.288-.24.68-.36 1.176-.36.344 0 .656.064.936.192.288.128.532.324.732.588.208.264.368.6.48 1.008.12.408.18.892.18 1.452 0 .56-.06 1.044-.18 1.452-.112.408-.272.744-.48 1.008-.2.264-.444.46-.732.588-.28.128-.592.192-.936.192-.496 0-.888-.116-1.176-.348a2.3 2.3 0 0 1-.66-.924h-.084V37h-1.776v-8.88Zm2.928 7.644c.4 0 .708-.12.924-.36.216-.248.324-.588.324-1.02v-.96c0-.432-.108-.768-.324-1.008-.216-.248-.524-.372-.924-.372-.312 0-.584.076-.816.228-.224.152-.336.392-.336.72v1.824c0 .328.112.568.336.72.232.152.504.228.816.228ZM33.953 37c-.368 0-.664-.092-.888-.276-.224-.192-.356-.464-.396-.816h-.06a1.512 1.512 0 0 1-.672.924c-.328.208-.732.312-1.212.312-.6 0-1.084-.16-1.452-.48-.36-.328-.54-.784-.54-1.368 0-.648.236-1.128.708-1.44.472-.312 1.164-.468 2.076-.468h.996v-.312c0-.368-.088-.644-.264-.828-.168-.192-.456-.288-.864-.288-.376 0-.68.072-.912.216a2.114 2.114 0 0 0-.6.564l-.972-.864c.208-.352.532-.64.972-.864.448-.232 1.02-.348 1.716-.348.848 0 1.508.196 1.98.588.48.384.72.968.72 1.752v2.712h.684V37h-1.02Zm-2.556-1.02c.312 0 .576-.076.792-.228.216-.152.324-.372.324-.66v-.744h-.948c-.728 0-1.092.244-1.092.732v.24c0 .216.084.38.252.492.168.112.392.168.672.168Zm4.796-.36h1.428v-3.432h-1.428v-1.38h3.204v1.752h.084c.056-.224.132-.44.228-.648.104-.216.232-.404.384-.564.16-.168.352-.3.576-.396a2 2 0 0 1 .792-.144h.588v1.632h-1.32c-.44 0-.772.132-.996.396-.224.256-.336.572-.336.948v1.836h2.04V37h-5.244v-1.38Zm7.195 0h1.428v-3.432h-1.428v-1.38h3.204v1.752h.084c.056-.224.132-.44.228-.648.104-.216.232-.404.384-.564.16-.168.352-.3.576-.396a2 2 0 0 1 .792-.144h.588v1.632h-1.32c-.44 0-.772.132-.996.396-.224.256-.336.572-.336.948v1.836h2.04V37h-5.244v-1.38Zm9.907 1.524A3.67 3.67 0 0 1 52 36.928a2.777 2.777 0 0 1-.984-.648 2.894 2.894 0 0 1-.612-1.02 3.986 3.986 0 0 1-.216-1.356c0-.504.072-.956.216-1.356.144-.4.348-.74.612-1.02.272-.28.6-.492.984-.636a3.496 3.496 0 0 1 1.296-.228c.48 0 .912.076 1.296.228.384.144.708.356.972.636.272.28.48.62.624 1.02.144.4.216.852.216 1.356 0 .504-.072.956-.216 1.356-.144.4-.352.74-.624 1.02a2.66 2.66 0 0 1-.972.648 3.67 3.67 0 0 1-1.296.216Zm0-1.32c.4 0 .712-.124.936-.372.224-.248.336-.6.336-1.056v-.984c0-.456-.112-.808-.336-1.056-.224-.248-.536-.372-.936-.372s-.712.124-.936.372c-.224.248-.336.6-.336 1.056v.984c0 .456.112.808.336 1.056.224.248.536.372.936.372ZM57.671 37v-6.192h1.776v1.128h.072c.072-.176.16-.34.264-.492a1.75 1.75 0 0 1 .888-.672c.2-.072.424-.108.672-.108.296 0 .568.052.816.156.248.096.46.244.636.444s.312.444.408.732c.104.288.156.62.156.996V37h-1.776v-3.768c0-.8-.348-1.2-1.044-1.2-.136 0-.272.02-.408.06a.938.938 0 0 0-.348.168.834.834 0 0 0-.252.276.876.876 0 0 0-.084.396V37H57.67Z" fill="#F8F8F2"/><path d="M15.915 38.656V27.88h3.888v1.188h-2.46v8.4h2.46v1.188h-3.888ZM69.09 27.88v10.776h-3.888v-1.188h2.46v-8.4h-2.46V27.88h3.888Z" fill="#FFFF80"/></svg>